<svg width="459" height="170" viewBox="0 0 459 170" fill="none" xmlns="http://www.w3.org/2000/svg">
<path d="M0 167.545V11.5758H67.2148C78.7721 11.5758 88.8847 13.6828 97.5527 17.8969C106.221 22.1109 112.962 28.178 117.778 36.0983C122.594 44.0186 125.001 53.5129 125.001 64.581C125.001 75.7507 122.517 85.1687 117.55 92.8352C112.633 100.502 105.714 106.29 96.7924 110.199C87.9216 114.108 77.5556 116.063 65.6941 116.063H25.5477V83.1633H57.1782C62.1458 83.1633 66.3784 82.554 69.876 81.3355C73.4243 80.0662 76.1362 78.0607 78.0118 75.3191C79.938 72.5775 80.9011 68.9981 80.9011 64.581C80.9011 60.1131 79.938 56.483 78.0118 53.6906C76.1362 50.8474 73.4243 48.7658 69.876 47.4457C66.3784 46.0749 62.1458 45.3895 57.1782 45.3895H42.2754V167.545H0ZM91.2418 95.9576L130.172 167.545H84.2466L46.2292 95.9576H91.2418Z" fill="#1270DF"/>
<path d="M143.63 167.545V50.5681H185.601V167.545H143.63ZM164.615 38.383C158.938 38.383 154.072 36.5045 150.017 32.7474C145.962 28.9904 143.934 24.4717 143.934 19.1915C143.934 13.9113 145.962 9.39267 150.017 5.6356C154.072 1.87853 158.938 0 164.615 0C170.343 0 175.21 1.87853 179.214 5.6356C183.269 9.39267 185.297 13.9113 185.297 19.1915C185.297 24.4717 183.269 28.9904 179.214 32.7474C175.21 36.5045 170.343 38.383 164.615 38.383Z" fill="#1270DF"/>
<path d="M249.261 169.068C240.948 169.068 233.294 166.885 226.299 162.519C219.354 158.152 213.778 151.527 209.571 142.642C205.415 133.757 203.336 122.562 203.336 109.057C203.336 94.9422 205.516 83.4679 209.875 74.6337C214.285 65.7995 219.963 59.3262 226.907 55.2137C233.902 51.1012 241.252 49.045 248.957 49.045C254.736 49.045 259.805 50.0604 264.164 52.0913C268.523 54.0713 272.173 56.7368 275.113 60.0877C278.053 63.3879 280.283 67.018 281.804 70.9782H282.412V11.5758H324.384V167.545H282.717V148.354H281.804C280.182 152.314 277.85 155.868 274.809 159.015C271.818 162.113 268.169 164.575 263.86 166.403C259.602 168.18 254.736 169.068 249.261 169.068ZM264.772 136.778C268.625 136.778 271.92 135.661 274.657 133.427C277.445 131.142 279.574 127.943 281.044 123.831C282.565 119.668 283.325 114.743 283.325 109.057C283.325 103.269 282.565 98.3185 281.044 94.206C279.574 90.0428 277.445 86.8696 274.657 84.6864C271.92 82.4525 268.625 81.3355 264.772 81.3355C260.92 81.3355 257.625 82.4525 254.888 84.6864C252.201 86.8696 250.123 90.0428 248.653 94.206C247.234 98.3185 246.524 103.269 246.524 109.057C246.524 114.844 247.234 119.82 248.653 123.983C250.123 128.096 252.201 131.269 254.888 133.503C257.625 135.686 260.92 136.778 264.772 136.778Z" fill="#1270DF"/>
<path d="M400.951 169.677C388.481 169.677 377.735 167.291 368.712 162.519C359.74 157.695 352.821 150.791 347.954 141.804C343.139 132.767 340.731 121.952 340.731 109.361C340.731 97.2777 343.164 86.7172 348.031 77.68C352.897 68.6427 359.765 61.6109 368.636 56.5845C377.507 51.5582 387.974 49.045 400.038 49.045C408.858 49.045 416.842 50.4158 423.989 53.1575C431.137 55.8991 437.245 59.8846 442.314 65.1141C447.383 70.2928 451.286 76.5884 454.023 84.001C456.76 91.4136 458.129 99.7654 458.129 109.057V118.805H353.809V95.653H419.503C419.453 92.3021 418.591 89.3573 416.918 86.8188C415.296 84.2295 413.091 82.224 410.303 80.8024C407.566 79.33 404.448 78.5938 400.951 78.5938C397.555 78.5938 394.437 79.33 391.599 80.8024C388.76 82.224 386.479 84.2041 384.755 86.7426C383.083 89.2812 382.196 92.2513 382.094 95.653V120.632C382.094 124.389 382.88 127.74 384.451 130.685C386.023 133.63 388.278 135.94 391.218 137.615C394.158 139.291 397.707 140.129 401.863 140.129C404.753 140.129 407.388 139.722 409.771 138.91C412.204 138.098 414.282 136.93 416.006 135.407C417.729 133.833 418.996 131.954 419.807 129.771H458.129C456.811 137.895 453.694 144.952 448.777 150.943C443.86 156.883 437.346 161.503 429.236 164.803C421.176 168.053 411.748 169.677 400.951 169.677Z" fill="#1270DF"/>
</svg>
